<svg width="880" height="560" viewBox="0 0 880 560" xmlns="http://www.w3.org/2000/svg" role="img">
  <defs>
    <linearGradient id="bg" x1="0" y1="0" x2="1" y2="1">
      <stop offset="0" stop-color="#a6c8cc" />
      <stop offset="1" stop-color="#3f7a82" />
    </linearGradient>
    <filter id="soft" x="-40%" y="-40%" width="180%" height="180%">
      <feGaussianBlur stdDeviation="46" />
    </filter>
    <radialGradient id="vig" cx="50%" cy="42%" r="75%">
      <stop offset="0" stop-color="#000000" stop-opacity="0" />
      <stop offset="1" stop-color="#000000" stop-opacity="0.22" />
    </radialGradient>
  </defs>
  <rect width="880" height="560" fill="url(#bg)" />
  <g filter="url(#soft)">
      <circle cx="322" cy="429" r="165" fill="#d2eaee" opacity="0.40" />
      <circle cx="126" cy="441" r="264" fill="#ffffff" opacity="0.46" />
      <circle cx="628" cy="223" r="284" fill="#d2eaee" opacity="0.36" />
      <circle cx="677" cy="83" r="285" fill="#ffffff" opacity="0.34" />
  </g>
  <g>
      <circle cx="70" cy="148" r="2.2" fill="#103438" opacity="0.20" />
      <circle cx="70" cy="226" r="2.2" fill="#103438" opacity="0.14" />
      <circle cx="70" cy="382" r="2.2" fill="#103438" opacity="0.23" />
      <circle cx="70" cy="460" r="2.2" fill="#103438" opacity="0.25" />
      <circle cx="165" cy="148" r="2.2" fill="#103438" opacity="0.22" />
      <circle cx="165" cy="226" r="2.2" fill="#103438" opacity="0.16" />
      <circle cx="165" cy="382" r="2.2" fill="#103438" opacity="0.11" />
      <circle cx="165" cy="460" r="2.2" fill="#103438" opacity="0.24" />
      <circle cx="260" cy="70" r="2.2" fill="#103438" opacity="0.23" />
      <circle cx="260" cy="148" r="2.2" fill="#103438" opacity="0.29" />
      <circle cx="260" cy="226" r="2.2" fill="#103438" opacity="0.15" />
      <circle cx="260" cy="460" r="2.2" fill="#103438" opacity="0.13" />
      <circle cx="355" cy="70" r="2.2" fill="#103438" opacity="0.13" />
      <circle cx="355" cy="148" r="2.2" fill="#103438" opacity="0.28" />
      <circle cx="355" cy="304" r="2.2" fill="#103438" opacity="0.19" />
      <circle cx="355" cy="460" r="2.2" fill="#103438" opacity="0.21" />
      <circle cx="450" cy="70" r="2.2" fill="#103438" opacity="0.18" />
      <circle cx="450" cy="226" r="2.2" fill="#103438" opacity="0.10" />
      <circle cx="450" cy="382" r="2.2" fill="#103438" opacity="0.29" />
      <circle cx="450" cy="460" r="2.2" fill="#103438" opacity="0.23" />
      <circle cx="545" cy="70" r="2.2" fill="#103438" opacity="0.14" />
      <circle cx="545" cy="226" r="2.2" fill="#103438" opacity="0.16" />
      <circle cx="545" cy="382" r="2.2" fill="#103438" opacity="0.21" />
      <circle cx="640" cy="70" r="2.2" fill="#103438" opacity="0.31" />
      <circle cx="640" cy="148" r="2.2" fill="#103438" opacity="0.13" />
      <circle cx="640" cy="226" r="2.2" fill="#103438" opacity="0.27" />
      <circle cx="640" cy="304" r="2.2" fill="#103438" opacity="0.29" />
      <circle cx="640" cy="460" r="2.2" fill="#103438" opacity="0.20" />
      <circle cx="735" cy="226" r="2.2" fill="#103438" opacity="0.29" />
      <circle cx="735" cy="304" r="2.2" fill="#103438" opacity="0.17" />
      <circle cx="735" cy="382" r="2.2" fill="#103438" opacity="0.12" />
      <circle cx="830" cy="70" r="2.2" fill="#103438" opacity="0.23" />
      <circle cx="830" cy="226" r="2.2" fill="#103438" opacity="0.31" />
      <circle cx="830" cy="304" r="2.2" fill="#103438" opacity="0.23" />
      <circle cx="830" cy="382" r="2.2" fill="#103438" opacity="0.12" />
  </g>
  <g>
      <path d="M 0 179.2 Q 16.9 179.2 33.8 203.3 Q 50.8 203.3 67.7 159.9 Q 84.6 159.9 101.5 154.2 Q 118.5 154.2 135.4 211.6 Q 152.3 211.6 169.2 145.6 Q 186.2 145.6 203.1 148.5 Q 220.0 148.5 236.9 187.9 Q 253.8 187.9 270.8 161.1 Q 287.7 161.1 304.6 197.5 Q 321.5 197.5 338.5 154.0 Q 355.4 154.0 372.3 148.8 Q 389.2 148.8 406.2 158.3 Q 423.1 158.3 440.0 204.0 Q 456.9 204.0 473.8 214.0 Q 490.8 214.0 507.7 178.4 Q 524.6 178.4 541.5 152.4 Q 558.5 152.4 575.4 163.7 Q 592.3 163.7 609.2 195.3 Q 626.2 195.3 643.1 169.9 Q 660.0 169.9 676.9 202.2 Q 693.8 202.2 710.8 197.5 Q 727.7 197.5 744.6 147.9 Q 761.5 147.9 778.5 187.2 Q 795.4 187.2 812.3 180.1 Q 829.2 180.1 846.2 168.9 Q 863.1 168.9 880.0 172.8" fill="none" stroke="#103438" stroke-width="1.4" opacity="0.16" stroke-linecap="round" />
      <path d="M 0 291.2 Q 16.9 291.2 33.8 265.8 Q 50.8 265.8 67.7 315.2 Q 84.6 315.2 101.5 278.7 Q 118.5 278.7 135.4 332.7 Q 152.3 332.7 169.2 297.9 Q 186.2 297.9 203.1 323.9 Q 220.0 323.9 236.9 316.4 Q 253.8 316.4 270.8 317.2 Q 287.7 317.2 304.6 326.1 Q 321.5 326.1 338.5 287.7 Q 355.4 287.7 372.3 304.6 Q 389.2 304.6 406.2 263.7 Q 423.1 263.7 440.0 332.1 Q 456.9 332.1 473.8 303.3 Q 490.8 303.3 507.7 324.1 Q 524.6 324.1 541.5 287.9 Q 558.5 287.9 575.4 314.1 Q 592.3 314.1 609.2 336.3 Q 626.2 336.3 643.1 328.1 Q 660.0 328.1 676.9 292.3 Q 693.8 292.3 710.8 270.7 Q 727.7 270.7 744.6 252.4 Q 761.5 252.4 778.5 320.6 Q 795.4 320.6 812.3 278.5 Q 829.2 278.5 846.2 271.4 Q 863.1 271.4 880.0 285.5" fill="none" stroke="#103438" stroke-width="1.7999999999999998" opacity="0.22" stroke-linecap="round" />
      <path d="M 0 403.2 Q 16.9 403.2 33.8 350.3 Q 50.8 350.3 67.7 376.6 Q 84.6 376.6 101.5 409.3 Q 118.5 409.3 135.4 414.6 Q 152.3 414.6 169.2 411.4 Q 186.2 411.4 203.1 459.4 Q 220.0 459.4 236.9 442.7 Q 253.8 442.7 270.8 423.9 Q 287.7 423.9 304.6 407.2 Q 321.5 407.2 338.5 410.5 Q 355.4 410.5 372.3 361.3 Q 389.2 361.3 406.2 371.0 Q 423.1 371.0 440.0 428.8 Q 456.9 428.8 473.8 430.2 Q 490.8 430.2 507.7 371.3 Q 524.6 371.3 541.5 387.6 Q 558.5 387.6 575.4 396.0 Q 592.3 396.0 609.2 428.1 Q 626.2 428.1 643.1 389.0 Q 660.0 389.0 676.9 385.2 Q 693.8 385.2 710.8 410.3 Q 727.7 410.3 744.6 375.6 Q 761.5 375.6 778.5 439.3 Q 795.4 439.3 812.3 427.2 Q 829.2 427.2 846.2 455.2 Q 863.1 455.2 880.0 386.8" fill="none" stroke="#103438" stroke-width="2.2" opacity="0.28" stroke-linecap="round" />
  </g>
  <rect width="880" height="560" fill="url(#vig)" />
</svg>
