<svg width="880" height="560" viewBox="0 0 880 560" xmlns="http://www.w3.org/2000/svg" role="img">
  <defs>
    <linearGradient id="bg" x1="0" y1="0" x2="1" y2="1">
      <stop offset="0" stop-color="#9ccdd9" />
      <stop offset="1" stop-color="#2f6f88" />
    </linearGradient>
    <filter id="soft" x="-40%" y="-40%" width="180%" height="180%">
      <feGaussianBlur stdDeviation="46" />
    </filter>
    <radialGradient id="vig" cx="50%" cy="42%" r="75%">
      <stop offset="0" stop-color="#000000" stop-opacity="0" />
      <stop offset="1" stop-color="#000000" stop-opacity="0.22" />
    </radialGradient>
  </defs>
  <rect width="880" height="560" fill="url(#bg)" />
  <g filter="url(#soft)">
      <circle cx="303" cy="108" r="288" fill="#d4ecf2" opacity="0.46" />
      <circle cx="136" cy="410" r="202" fill="#ffffff" opacity="0.54" />
      <circle cx="530" cy="100" r="278" fill="#d4ecf2" opacity="0.55" />
      <circle cx="508" cy="329" r="261" fill="#ffffff" opacity="0.35" />
  </g>
  <g>
      <circle cx="70" cy="70" r="2.2" fill="#0f3a46" opacity="0.31" />
      <circle cx="70" cy="226" r="2.2" fill="#0f3a46" opacity="0.18" />
      <circle cx="70" cy="382" r="2.2" fill="#0f3a46" opacity="0.14" />
      <circle cx="165" cy="226" r="2.2" fill="#0f3a46" opacity="0.15" />
      <circle cx="165" cy="382" r="2.2" fill="#0f3a46" opacity="0.28" />
      <circle cx="165" cy="460" r="2.2" fill="#0f3a46" opacity="0.21" />
      <circle cx="260" cy="148" r="2.2" fill="#0f3a46" opacity="0.18" />
      <circle cx="260" cy="226" r="2.2" fill="#0f3a46" opacity="0.19" />
      <circle cx="355" cy="226" r="2.2" fill="#0f3a46" opacity="0.24" />
      <circle cx="355" cy="460" r="2.2" fill="#0f3a46" opacity="0.27" />
      <circle cx="450" cy="460" r="2.2" fill="#0f3a46" opacity="0.22" />
      <circle cx="545" cy="148" r="2.2" fill="#0f3a46" opacity="0.23" />
      <circle cx="545" cy="226" r="2.2" fill="#0f3a46" opacity="0.29" />
      <circle cx="545" cy="382" r="2.2" fill="#0f3a46" opacity="0.12" />
      <circle cx="545" cy="460" r="2.2" fill="#0f3a46" opacity="0.23" />
      <circle cx="640" cy="226" r="2.2" fill="#0f3a46" opacity="0.24" />
      <circle cx="640" cy="382" r="2.2" fill="#0f3a46" opacity="0.15" />
      <circle cx="735" cy="70" r="2.2" fill="#0f3a46" opacity="0.12" />
      <circle cx="735" cy="148" r="2.2" fill="#0f3a46" opacity="0.22" />
      <circle cx="735" cy="226" r="2.2" fill="#0f3a46" opacity="0.15" />
      <circle cx="735" cy="304" r="2.2" fill="#0f3a46" opacity="0.30" />
      <circle cx="735" cy="382" r="2.2" fill="#0f3a46" opacity="0.30" />
      <circle cx="735" cy="460" r="2.2" fill="#0f3a46" opacity="0.27" />
      <circle cx="830" cy="460" r="2.2" fill="#0f3a46" opacity="0.15" />
  </g>
  <g>
      <path d="M 0 179.2 Q 16.9 179.2 33.8 158.8 Q 50.8 158.8 67.7 184.4 Q 84.6 184.4 101.5 148.3 Q 118.5 148.3 135.4 192.5 Q 152.3 192.5 169.2 174.9 Q 186.2 174.9 203.1 158.1 Q 220.0 158.1 236.9 157.2 Q 253.8 157.2 270.8 164.4 Q 287.7 164.4 304.6 165.3 Q 321.5 165.3 338.5 188.4 Q 355.4 188.4 372.3 179.5 Q 389.2 179.5 406.2 186.6 Q 423.1 186.6 440.0 210.2 Q 456.9 210.2 473.8 194.4 Q 490.8 194.4 507.7 165.3 Q 524.6 165.3 541.5 171.1 Q 558.5 171.1 575.4 187.4 Q 592.3 187.4 609.2 142.9 Q 626.2 142.9 643.1 191.5 Q 660.0 191.5 676.9 175.2 Q 693.8 175.2 710.8 151.5 Q 727.7 151.5 744.6 163.3 Q 761.5 163.3 778.5 170.6 Q 795.4 170.6 812.3 174.6 Q 829.2 174.6 846.2 213.6 Q 863.1 213.6 880.0 189.0" fill="none" stroke="#0f3a46" stroke-width="1.4" opacity="0.16" stroke-linecap="round" />
      <path d="M 0 291.2 Q 16.9 291.2 33.8 271.2 Q 50.8 271.2 67.7 243.2 Q 84.6 243.2 101.5 277.7 Q 118.5 277.7 135.4 298.8 Q 152.3 298.8 169.2 316.4 Q 186.2 316.4 203.1 253.2 Q 220.0 253.2 236.9 265.7 Q 253.8 265.7 270.8 274.2 Q 287.7 274.2 304.6 277.4 Q 321.5 277.4 338.5 295.3 Q 355.4 295.3 372.3 268.1 Q 389.2 268.1 406.2 272.8 Q 423.1 272.8 440.0 273.0 Q 456.9 273.0 473.8 271.0 Q 490.8 271.0 507.7 286.9 Q 524.6 286.9 541.5 279.2 Q 558.5 279.2 575.4 276.0 Q 592.3 276.0 609.2 287.4 Q 626.2 287.4 643.1 322.3 Q 660.0 322.3 676.9 243.3 Q 693.8 243.3 710.8 310.5 Q 727.7 310.5 744.6 309.7 Q 761.5 309.7 778.5 282.0 Q 795.4 282.0 812.3 243.7 Q 829.2 243.7 846.2 251.3 Q 863.1 251.3 880.0 318.2" fill="none" stroke="#0f3a46" stroke-width="1.7999999999999998" opacity="0.22" stroke-linecap="round" />
      <path d="M 0 403.2 Q 16.9 403.2 33.8 372.5 Q 50.8 372.5 67.7 393.3 Q 84.6 393.3 101.5 429.7 Q 118.5 429.7 135.4 403.1 Q 152.3 403.1 169.2 360.5 Q 186.2 360.5 203.1 385.3 Q 220.0 385.3 236.9 400.6 Q 253.8 400.6 270.8 428.5 Q 287.7 428.5 304.6 409.7 Q 321.5 409.7 338.5 350.6 Q 355.4 350.6 372.3 442.2 Q 389.2 442.2 406.2 364.8 Q 423.1 364.8 440.0 408.0 Q 456.9 408.0 473.8 447.9 Q 490.8 447.9 507.7 384.2 Q 524.6 384.2 541.5 394.2 Q 558.5 394.2 575.4 460.2 Q 592.3 460.2 609.2 380.3 Q 626.2 380.3 643.1 436.7 Q 660.0 436.7 676.9 416.1 Q 693.8 416.1 710.8 439.0 Q 727.7 439.0 744.6 382.7 Q 761.5 382.7 778.5 383.9 Q 795.4 383.9 812.3 376.0 Q 829.2 376.0 846.2 422.0 Q 863.1 422.0 880.0 394.7" fill="none" stroke="#0f3a46" stroke-width="2.2" opacity="0.28" stroke-linecap="round" />
  </g>
  <rect width="880" height="560" fill="url(#vig)" />
</svg>
