<svg width="880" height="560" viewBox="0 0 880 560" xmlns="http://www.w3.org/2000/svg" role="img">
  <defs>
    <linearGradient id="bg" x1="0" y1="0" x2="1" y2="1">
      <stop offset="0" stop-color="#c3aae6" />
      <stop offset="1" stop-color="#5a3f9e" />
    </linearGradient>
    <filter id="soft" x="-40%" y="-40%" width="180%" height="180%">
      <feGaussianBlur stdDeviation="46" />
    </filter>
    <radialGradient id="vig" cx="50%" cy="42%" r="75%">
      <stop offset="0" stop-color="#000000" stop-opacity="0" />
      <stop offset="1" stop-color="#000000" stop-opacity="0.22" />
    </radialGradient>
  </defs>
  <rect width="880" height="560" fill="url(#bg)" />
  <g filter="url(#soft)">
      <circle cx="276" cy="153" r="168" fill="#e2d4f5" opacity="0.45" />
      <circle cx="363" cy="209" r="205" fill="#ffffff" opacity="0.58" />
      <circle cx="242" cy="395" r="192" fill="#e2d4f5" opacity="0.36" />
      <circle cx="202" cy="429" r="282" fill="#ffffff" opacity="0.41" />
  </g>
  <g>
      <circle cx="70" cy="382" r="2.2" fill="#2a1a5a" opacity="0.23" />
      <circle cx="70" cy="460" r="2.2" fill="#2a1a5a" opacity="0.27" />
      <circle cx="165" cy="70" r="2.2" fill="#2a1a5a" opacity="0.15" />
      <circle cx="165" cy="226" r="2.2" fill="#2a1a5a" opacity="0.14" />
      <circle cx="165" cy="304" r="2.2" fill="#2a1a5a" opacity="0.10" />
      <circle cx="165" cy="382" r="2.2" fill="#2a1a5a" opacity="0.30" />
      <circle cx="260" cy="70" r="2.2" fill="#2a1a5a" opacity="0.29" />
      <circle cx="260" cy="304" r="2.2" fill="#2a1a5a" opacity="0.29" />
      <circle cx="260" cy="382" r="2.2" fill="#2a1a5a" opacity="0.16" />
      <circle cx="260" cy="460" r="2.2" fill="#2a1a5a" opacity="0.11" />
      <circle cx="355" cy="70" r="2.2" fill="#2a1a5a" opacity="0.17" />
      <circle cx="355" cy="148" r="2.2" fill="#2a1a5a" opacity="0.14" />
      <circle cx="355" cy="382" r="2.2" fill="#2a1a5a" opacity="0.22" />
      <circle cx="355" cy="460" r="2.2" fill="#2a1a5a" opacity="0.24" />
      <circle cx="450" cy="70" r="2.2" fill="#2a1a5a" opacity="0.12" />
      <circle cx="450" cy="148" r="2.2" fill="#2a1a5a" opacity="0.11" />
      <circle cx="450" cy="304" r="2.2" fill="#2a1a5a" opacity="0.24" />
      <circle cx="545" cy="226" r="2.2" fill="#2a1a5a" opacity="0.32" />
      <circle cx="545" cy="304" r="2.2" fill="#2a1a5a" opacity="0.11" />
      <circle cx="545" cy="382" r="2.2" fill="#2a1a5a" opacity="0.21" />
      <circle cx="640" cy="226" r="2.2" fill="#2a1a5a" opacity="0.13" />
      <circle cx="640" cy="382" r="2.2" fill="#2a1a5a" opacity="0.29" />
      <circle cx="640" cy="460" r="2.2" fill="#2a1a5a" opacity="0.24" />
      <circle cx="735" cy="70" r="2.2" fill="#2a1a5a" opacity="0.18" />
      <circle cx="735" cy="148" r="2.2" fill="#2a1a5a" opacity="0.25" />
      <circle cx="735" cy="226" r="2.2" fill="#2a1a5a" opacity="0.22" />
      <circle cx="830" cy="148" r="2.2" fill="#2a1a5a" opacity="0.16" />
      <circle cx="830" cy="226" r="2.2" fill="#2a1a5a" opacity="0.24" />
  </g>
  <g>
      <path d="M 0 179.2 Q 16.9 179.2 33.8 183.9 Q 50.8 183.9 67.7 168.6 Q 84.6 168.6 101.5 184.0 Q 118.5 184.0 135.4 184.6 Q 152.3 184.6 169.2 203.2 Q 186.2 203.2 203.1 197.3 Q 220.0 197.3 236.9 184.7 Q 253.8 184.7 270.8 159.8 Q 287.7 159.8 304.6 167.1 Q 321.5 167.1 338.5 166.1 Q 355.4 166.1 372.3 198.5 Q 389.2 198.5 406.2 174.6 Q 423.1 174.6 440.0 190.9 Q 456.9 190.9 473.8 201.5 Q 490.8 201.5 507.7 167.6 Q 524.6 167.6 541.5 166.4 Q 558.5 166.4 575.4 169.7 Q 592.3 169.7 609.2 160.6 Q 626.2 160.6 643.1 152.1 Q 660.0 152.1 676.9 176.7 Q 693.8 176.7 710.8 160.5 Q 727.7 160.5 744.6 172.0 Q 761.5 172.0 778.5 181.0 Q 795.4 181.0 812.3 165.7 Q 829.2 165.7 846.2 166.9 Q 863.1 166.9 880.0 208.2" fill="none" stroke="#2a1a5a" stroke-width="1.4" opacity="0.16" stroke-linecap="round" />
      <path d="M 0 291.2 Q 16.9 291.2 33.8 277.4 Q 50.8 277.4 67.7 331.4 Q 84.6 331.4 101.5 309.7 Q 118.5 309.7 135.4 261.7 Q 152.3 261.7 169.2 306.5 Q 186.2 306.5 203.1 276.8 Q 220.0 276.8 236.9 271.3 Q 253.8 271.3 270.8 329.8 Q 287.7 329.8 304.6 292.0 Q 321.5 292.0 338.5 281.2 Q 355.4 281.2 372.3 306.8 Q 389.2 306.8 406.2 315.0 Q 423.1 315.0 440.0 261.6 Q 456.9 261.6 473.8 315.2 Q 490.8 315.2 507.7 313.2 Q 524.6 313.2 541.5 247.6 Q 558.5 247.6 575.4 252.0 Q 592.3 252.0 609.2 273.1 Q 626.2 273.1 643.1 262.9 Q 660.0 262.9 676.9 280.3 Q 693.8 280.3 710.8 259.5 Q 727.7 259.5 744.6 305.8 Q 761.5 305.8 778.5 266.7 Q 795.4 266.7 812.3 290.3 Q 829.2 290.3 846.2 301.8 Q 863.1 301.8 880.0 283.1" fill="none" stroke="#2a1a5a" stroke-width="1.7999999999999998" opacity="0.22" stroke-linecap="round" />
      <path d="M 0 403.2 Q 16.9 403.2 33.8 350.5 Q 50.8 350.5 67.7 413.1 Q 84.6 413.1 101.5 379.5 Q 118.5 379.5 135.4 358.7 Q 152.3 358.7 169.2 401.6 Q 186.2 401.6 203.1 428.6 Q 220.0 428.6 236.9 351.7 Q 253.8 351.7 270.8 407.5 Q 287.7 407.5 304.6 397.5 Q 321.5 397.5 338.5 362.8 Q 355.4 362.8 372.3 373.0 Q 389.2 373.0 406.2 449.5 Q 423.1 449.5 440.0 341.2 Q 456.9 341.2 473.8 377.6 Q 490.8 377.6 507.7 374.2 Q 524.6 374.2 541.5 355.4 Q 558.5 355.4 575.4 344.2 Q 592.3 344.2 609.2 344.5 Q 626.2 344.5 643.1 416.5 Q 660.0 416.5 676.9 403.8 Q 693.8 403.8 710.8 405.9 Q 727.7 405.9 744.6 413.5 Q 761.5 413.5 778.5 400.4 Q 795.4 400.4 812.3 355.9 Q 829.2 355.9 846.2 426.6 Q 863.1 426.6 880.0 369.4" fill="none" stroke="#2a1a5a" stroke-width="2.2" opacity="0.28" stroke-linecap="round" />
  </g>
  <rect width="880" height="560" fill="url(#vig)" />
</svg>
