<svg width="880" height="560" viewBox="0 0 880 560" xmlns="http://www.w3.org/2000/svg" role="img">
  <defs>
    <linearGradient id="bg" x1="0" y1="0" x2="1" y2="1">
      <stop offset="0" stop-color="#9ec2f0" />
      <stop offset="1" stop-color="#3a5fa6" />
    </linearGradient>
    <filter id="soft" x="-40%" y="-40%" width="180%" height="180%">
      <feGaussianBlur stdDeviation="46" />
    </filter>
    <radialGradient id="vig" cx="50%" cy="42%" r="75%">
      <stop offset="0" stop-color="#000000" stop-opacity="0" />
      <stop offset="1" stop-color="#000000" stop-opacity="0.22" />
    </radialGradient>
  </defs>
  <rect width="880" height="560" fill="url(#bg)" />
  <g filter="url(#soft)">
      <circle cx="282" cy="115" r="240" fill="#cfe1f7" opacity="0.39" />
      <circle cx="360" cy="90" r="215" fill="#ffffff" opacity="0.36" />
      <circle cx="679" cy="478" r="292" fill="#cfe1f7" opacity="0.47" />
      <circle cx="531" cy="425" r="243" fill="#ffffff" opacity="0.35" />
  </g>
  <g>
      <circle cx="70" cy="148" r="2.2" fill="#13284a" opacity="0.19" />
      <circle cx="70" cy="304" r="2.2" fill="#13284a" opacity="0.13" />
      <circle cx="70" cy="382" r="2.2" fill="#13284a" opacity="0.16" />
      <circle cx="70" cy="460" r="2.2" fill="#13284a" opacity="0.22" />
      <circle cx="165" cy="70" r="2.2" fill="#13284a" opacity="0.31" />
      <circle cx="165" cy="304" r="2.2" fill="#13284a" opacity="0.25" />
      <circle cx="165" cy="382" r="2.2" fill="#13284a" opacity="0.30" />
      <circle cx="260" cy="382" r="2.2" fill="#13284a" opacity="0.13" />
      <circle cx="260" cy="460" r="2.2" fill="#13284a" opacity="0.12" />
      <circle cx="355" cy="70" r="2.2" fill="#13284a" opacity="0.20" />
      <circle cx="355" cy="382" r="2.2" fill="#13284a" opacity="0.25" />
      <circle cx="355" cy="460" r="2.2" fill="#13284a" opacity="0.18" />
      <circle cx="450" cy="148" r="2.2" fill="#13284a" opacity="0.27" />
      <circle cx="450" cy="304" r="2.2" fill="#13284a" opacity="0.28" />
      <circle cx="545" cy="148" r="2.2" fill="#13284a" opacity="0.23" />
      <circle cx="545" cy="226" r="2.2" fill="#13284a" opacity="0.25" />
      <circle cx="545" cy="304" r="2.2" fill="#13284a" opacity="0.20" />
      <circle cx="545" cy="382" r="2.2" fill="#13284a" opacity="0.28" />
      <circle cx="545" cy="460" r="2.2" fill="#13284a" opacity="0.19" />
      <circle cx="640" cy="304" r="2.2" fill="#13284a" opacity="0.21" />
      <circle cx="735" cy="70" r="2.2" fill="#13284a" opacity="0.13" />
      <circle cx="735" cy="382" r="2.2" fill="#13284a" opacity="0.15" />
      <circle cx="830" cy="304" r="2.2" fill="#13284a" opacity="0.25" />
  </g>
  <g>
      <path d="M 0 179.2 Q 16.9 179.2 33.8 216.4 Q 50.8 216.4 67.7 210.8 Q 84.6 210.8 101.5 174.3 Q 118.5 174.3 135.4 190.6 Q 152.3 190.6 169.2 156.2 Q 186.2 156.2 203.1 180.9 Q 220.0 180.9 236.9 183.8 Q 253.8 183.8 270.8 202.6 Q 287.7 202.6 304.6 196.4 Q 321.5 196.4 338.5 190.6 Q 355.4 190.6 372.3 202.5 Q 389.2 202.5 406.2 198.1 Q 423.1 198.1 440.0 156.1 Q 456.9 156.1 473.8 189.7 Q 490.8 189.7 507.7 171.7 Q 524.6 171.7 541.5 183.8 Q 558.5 183.8 575.4 201.3 Q 592.3 201.3 609.2 159.6 Q 626.2 159.6 643.1 159.0 Q 660.0 159.0 676.9 212.1 Q 693.8 212.1 710.8 170.6 Q 727.7 170.6 744.6 176.3 Q 761.5 176.3 778.5 165.1 Q 795.4 165.1 812.3 164.7 Q 829.2 164.7 846.2 145.8 Q 863.1 145.8 880.0 180.2" fill="none" stroke="#13284a" stroke-width="1.4" opacity="0.16" stroke-linecap="round" />
      <path d="M 0 291.2 Q 16.9 291.2 33.8 265.0 Q 50.8 265.0 67.7 312.6 Q 84.6 312.6 101.5 284.3 Q 118.5 284.3 135.4 326.1 Q 152.3 326.1 169.2 314.6 Q 186.2 314.6 203.1 311.1 Q 220.0 311.1 236.9 251.9 Q 253.8 251.9 270.8 246.6 Q 287.7 246.6 304.6 270.4 Q 321.5 270.4 338.5 279.0 Q 355.4 279.0 372.3 341.9 Q 389.2 341.9 406.2 323.1 Q 423.1 323.1 440.0 310.6 Q 456.9 310.6 473.8 314.0 Q 490.8 314.0 507.7 314.6 Q 524.6 314.6 541.5 300.5 Q 558.5 300.5 575.4 256.9 Q 592.3 256.9 609.2 325.7 Q 626.2 325.7 643.1 275.5 Q 660.0 275.5 676.9 311.1 Q 693.8 311.1 710.8 302.6 Q 727.7 302.6 744.6 260.2 Q 761.5 260.2 778.5 264.0 Q 795.4 264.0 812.3 292.4 Q 829.2 292.4 846.2 316.3 Q 863.1 316.3 880.0 280.6" fill="none" stroke="#13284a" stroke-width="1.7999999999999998" opacity="0.22" stroke-linecap="round" />
      <path d="M 0 403.2 Q 16.9 403.2 33.8 385.7 Q 50.8 385.7 67.7 398.6 Q 84.6 398.6 101.5 445.3 Q 118.5 445.3 135.4 409.8 Q 152.3 409.8 169.2 391.3 Q 186.2 391.3 203.1 459.8 Q 220.0 459.8 236.9 382.2 Q 253.8 382.2 270.8 386.4 Q 287.7 386.4 304.6 355.1 Q 321.5 355.1 338.5 408.1 Q 355.4 408.1 372.3 408.5 Q 389.2 408.5 406.2 383.4 Q 423.1 383.4 440.0 422.6 Q 456.9 422.6 473.8 366.1 Q 490.8 366.1 507.7 383.6 Q 524.6 383.6 541.5 397.5 Q 558.5 397.5 575.4 415.6 Q 592.3 415.6 609.2 466.9 Q 626.2 466.9 643.1 424.4 Q 660.0 424.4 676.9 340.8 Q 693.8 340.8 710.8 368.1 Q 727.7 368.1 744.6 449.2 Q 761.5 449.2 778.5 380.0 Q 795.4 380.0 812.3 422.8 Q 829.2 422.8 846.2 408.9 Q 863.1 408.9 880.0 421.7" fill="none" stroke="#13284a" stroke-width="2.2" opacity="0.28" stroke-linecap="round" />
  </g>
  <rect width="880" height="560" fill="url(#vig)" />
</svg>
