<svg xmlns="http://www.w3.org/2000/svg" width="1200" height="630" viewBox="0 0 1200 630">
  <defs>
    <radialGradient id="glow" cx="80%" cy="16%" r="62%">
      <stop offset="0" stop-color="#7C84F2" stop-opacity="0.24"/>
      <stop offset="0.55" stop-color="#7C84F2" stop-opacity="0"/>
    </radialGradient>
    <radialGradient id="vig" cx="50%" cy="118%" r="70%">
      <stop offset="0" stop-color="#000000" stop-opacity="0.55"/>
      <stop offset="0.6" stop-color="#000000" stop-opacity="0"/>
    </radialGradient>
    <linearGradient id="fade" x1="0" y1="0" x2="1" y2="0">
      <stop offset="0" stop-color="#ffffff" stop-opacity="0"/>
      <stop offset="0.46" stop-color="#ffffff" stop-opacity="1"/>
    </linearGradient>
    <mask id="cmask"><rect x="600" y="0" width="600" height="630" fill="url(#fade)"/></mask>
    <style>
      .nm{font-family:'Fraunces',Georgia,'Times New Roman',serif;font-weight:600;}
      .eb{font-family:'JetBrains Mono','SFMono-Regular',monospace;}
    </style>
  </defs>

  <rect width="1200" height="630" fill="#16171A"/>
  <rect width="1200" height="630" fill="url(#glow)"/>

  <g transform="translate(1055,312)">
    <g fill="none" stroke="#7C84F2" stroke-width="1.3" opacity="0.5">
      <circle r="258"/><circle r="184"/><circle r="110"/>
      <path d="M-204 -66 L0 0 L182 -116 M-112 146 L0 0 L154 106 M6 -232 L0 0 L-66 240"/>
    </g>
    <g fill="#A8AEF8">
      <circle cx="-204" cy="-66" r="6"/><circle cx="182" cy="-116" r="6"/><circle cx="-112" cy="146" r="5"/>
      <circle cx="154" cy="106" r="5"/><circle cx="6" cy="-232" r="6"/><circle cx="-66" cy="240" r="5"/>
      <circle cx="0" cy="0" r="9.5"/>
    </g>
  </g>

  <rect width="1200" height="630" fill="url(#vig)"/>

  <text x="98" y="250" class="eb" font-size="20" fill="#7C84F2" style="letter-spacing:5px">COGNITIVE NEUROSCIENTIST · AWA</text>
  <text x="93" y="364" class="nm" font-size="114" fill="#F2F2F0" style="letter-spacing:-2.5px">Nathan Gupta</text>
  <rect x="98" y="404" width="146" height="4" rx="2" fill="#7C84F2"/>
</svg>
